# xmcd CD database file
#
# Track frame offsets:
#	150
#	12010
#	22595
#	34570
#	45705
#	58012
#	69417
#	79195
#	88665
#	98535
#	107920
#	117635
#	129167
#	146045
#
# Disc length: 2074 seconds
#
# Revision: 0
# Processed by: cddbd v1.4PL0 Copyright (c) Steve Scherf et al.
# Submitted via: Feurio! 1.66 - http://www.feurio.com
#
DISCID=ab08180e
DTITLE=Skeeter Davis - Country Gold
DYEAR=1995
DGENRE=
TTITLE0=(ICan't Help You) I'm Falling Too
TTITLE1=Set Him Free
TTITLE2=The End Of The World
TTITLE3=My Last Date (With You)
TTITLE4=What Does It Take
TTITLE5=Gonna Get Along Without You Now
TTITLE6=Homebreaker
TTITLE7=Am I That Easy To Forget
TTITLE8=I Can't Stay Mad At You
TTITLE9=Goin' Down The Road (Feelin' Bad)
TTITLE10=I Can't Believe That It's All Over
TTITLE11=I Forgot More Than You'll Ever Know
TTITLE12=Oh, Happy Day
TTITLE13=Turn Your Radio On
EXTD=
EXTT0=
EXTT1=
EXTT2=
EXTT3=
EXTT4=
EXTT5=
EXTT6=
EXTT7=
EXTT8=
EXTT9=
EXTT10=
EXTT11=
EXTT12=
EXTT13=
PLAYORDER=
